<svg xmlns="http://www.w3.org/2000/svg" viewBox="0 0 200 200">
  <path d="M100 20C55.8 20 20 55.8 20 100s35.8 80 80 80 80-35.8 80-80S144.2 20 100 20zm0 150c-38.7 0-70-31.3-70-70s31.3-70 70-70 70 31.3 70 70-31.3 70-70 70z" fill="#552583"/>
  <path d="M100 40c-33.1 0-60 26.9-60 60s26.9 60 60 60 60-26.9 60-60-26.9-60-60-60zm0 110c-27.6 0-50-22.4-50-50s22.4-50 50-50 50 22.4 50 50-22.4 50-50 50z" fill="#FDB927"/>
  <text x="50" y="115" font-family="Arial Black" font-size="40" fill="#552583">LA</text>
</svg>